<svg width="224" height="58" viewBox="0 0 224 58" fill="none" xmlns="http://www.w3.org/2000/svg">
<path d="M54.95 17.8714C54.95 8.57727 47.3165 1.04286 37.9 1.04286C28.4835 1.04286 20.85 8.57727 20.85 17.8714C20.85 27.1656 28.4835 34.7 37.9 34.7V35.2429C28.1798 35.2429 20.3 27.4654 20.3 17.8714C20.3 8.27745 28.1798 0.5 37.9 0.5C47.6202 0.5 55.5 8.27745 55.5 17.8714C55.5 27.4654 47.6202 35.2429 37.9 35.2429V34.7C47.3165 34.7 54.95 27.1656 54.95 17.8714Z" fill="#464646"/>
<path d="M54.4 40.1286C54.4 30.8344 46.7665 23.3 37.35 23.3C27.9335 23.3 20.3 30.8344 20.3 40.1286C20.3 49.4227 27.9335 56.9571 37.35 56.9571V57.5C27.6298 57.5 19.75 49.7225 19.75 40.1286C19.75 30.5346 27.6298 22.7571 37.35 22.7571C47.0702 22.7571 54.95 30.5346 54.95 40.1286C54.95 49.7225 47.0702 57.5 37.35 57.5V56.9571C46.7665 56.9571 54.4 49.4227 54.4 40.1286Z" fill="#464646"/>
<path d="M35.15 28.7286C35.15 19.4344 27.5165 11.9 18.1 11.9C8.68355 11.9 1.05 19.4344 1.05 28.7286C1.05 38.0227 8.68355 45.5571 18.1 45.5571V46.1C8.37979 46.1 0.5 38.3225 0.5 28.7286C0.5 19.1346 8.37979 11.3571 18.1 11.3571C27.8202 11.3571 35.7 19.1346 35.7 28.7286C35.7 38.3225 27.8202 46.1 18.1 46.1V45.5571C27.5165 45.5571 35.15 38.0227 35.15 28.7286Z" fill="#464646"/>
<path d="M23.6 11.9C23.6 12.7994 22.8613 13.5286 21.95 13.5286C21.0387 13.5286 20.3 12.7994 20.3 11.9C20.3 11.0006 21.0387 10.2714 21.95 10.2714C22.8613 10.2714 23.6 11.0006 23.6 11.9Z" fill="#464646"/>
<path d="M36.25 23.3C36.25 24.1994 35.5113 24.9286 34.6 24.9286C33.6887 24.9286 32.95 24.1994 32.95 23.3C32.95 22.4006 33.6887 21.6714 34.6 21.6714C35.5113 21.6714 36.25 22.4006 36.25 23.3Z" fill="#464646"/>
<path d="M26.35 28.1857C26.35 29.0852 25.6113 29.8143 24.7 29.8143C23.7887 29.8143 23.05 29.0852 23.05 28.1857C23.05 27.2863 23.7887 26.5571 24.7 26.5571C25.6113 26.5571 26.35 27.2863 26.35 28.1857Z" fill="#464646"/>
<path d="M36.25 34.1571C36.25 35.0566 35.5113 35.7857 34.6 35.7857C33.6887 35.7857 32.95 35.0566 32.95 34.1571C32.95 33.2577 33.6887 32.5286 34.6 32.5286C35.5113 32.5286 36.25 33.2577 36.25 34.1571Z" fill="#464646"/>
<path d="M23.05 45.0143C23.05 45.9137 22.3113 46.6429 21.4 46.6429C20.4887 46.6429 19.75 45.9137 19.75 45.0143C19.75 44.1149 20.4887 43.3857 21.4 43.3857C22.3113 43.3857 23.05 44.1149 23.05 45.0143Z" fill="#464646"/>
<path d="M52.75 29.8143C52.75 30.7137 52.0113 31.4429 51.1 31.4429C50.1887 31.4429 49.45 30.7137 49.45 29.8143C49.45 28.9149 50.1887 28.1857 51.1 28.1857C52.0113 28.1857 52.75 28.9149 52.75 29.8143Z" fill="#464646"/>
<path d="M37.9 34.7C28.4835 34.7 20.85 27.1656 20.85 17.8714C20.85 8.57727 28.4835 1.04286 37.9 1.04286C47.3165 1.04286 54.95 8.57727 54.95 17.8714C54.95 27.1656 47.3165 34.7 37.9 34.7ZM37.9 34.7V35.2429M37.9 35.2429C28.1798 35.2429 20.3 27.4654 20.3 17.8714C20.3 8.27745 28.1798 0.5 37.9 0.5C47.6202 0.5 55.5 8.27745 55.5 17.8714C55.5 27.4654 47.6202 35.2429 37.9 35.2429ZM37.35 56.9571C27.9335 56.9571 20.3 49.4227 20.3 40.1286C20.3 30.8344 27.9335 23.3 37.35 23.3C46.7665 23.3 54.4 30.8344 54.4 40.1286C54.4 49.4227 46.7665 56.9571 37.35 56.9571ZM37.35 56.9571V57.5M37.35 57.5C27.6298 57.5 19.75 49.7225 19.75 40.1286C19.75 30.5346 27.6298 22.7571 37.35 22.7571C47.0702 22.7571 54.95 30.5346 54.95 40.1286C54.95 49.7225 47.0702 57.5 37.35 57.5ZM18.1 45.5571C8.68355 45.5571 1.05 38.0227 1.05 28.7286C1.05 19.4344 8.68355 11.9 18.1 11.9C27.5165 11.9 35.15 19.4344 35.15 28.7286C35.15 38.0227 27.5165 45.5571 18.1 45.5571ZM18.1 45.5571V46.1M18.1 46.1C8.37979 46.1 0.5 38.3225 0.5 28.7286C0.5 19.1346 8.37979 11.3571 18.1 11.3571C27.8202 11.3571 35.7 19.1346 35.7 28.7286C35.7 38.3225 27.8202 46.1 18.1 46.1ZM23.6 11.9C23.6 12.7994 22.8613 13.5286 21.95 13.5286C21.0387 13.5286 20.3 12.7994 20.3 11.9C20.3 11.0006 21.0387 10.2714 21.95 10.2714C22.8613 10.2714 23.6 11.0006 23.6 11.9ZM36.25 23.3C36.25 24.1994 35.5113 24.9286 34.6 24.9286C33.6887 24.9286 32.95 24.1994 32.95 23.3C32.95 22.4006 33.6887 21.6714 34.6 21.6714C35.5113 21.6714 36.25 22.4006 36.25 23.3ZM26.35 28.1857C26.35 29.0852 25.6113 29.8143 24.7 29.8143C23.7887 29.8143 23.05 29.0852 23.05 28.1857C23.05 27.2863 23.7887 26.5571 24.7 26.5571C25.6113 26.5571 26.35 27.2863 26.35 28.1857ZM36.25 34.1571C36.25 35.0566 35.5113 35.7857 34.6 35.7857C33.6887 35.7857 32.95 35.0566 32.95 34.1571C32.95 33.2577 33.6887 32.5286 34.6 32.5286C35.5113 32.5286 36.25 33.2577 36.25 34.1571ZM23.05 45.0143C23.05 45.9137 22.3113 46.6429 21.4 46.6429C20.4887 46.6429 19.75 45.9137 19.75 45.0143C19.75 44.1149 20.4887 43.3857 21.4 43.3857C22.3113 43.3857 23.05 44.1149 23.05 45.0143ZM52.75 29.8143C52.75 30.7137 52.0113 31.4429 51.1 31.4429C50.1887 31.4429 49.45 30.7137 49.45 29.8143C49.45 28.9149 50.1887 28.1857 51.1 28.1857C52.0113 28.1857 52.75 28.9149 52.75 29.8143Z" stroke="#464646"/>
<path d="M86.524 46.576C84.764 46.576 83.148 46.368 81.676 45.952C80.236 45.536 78.956 44.96 77.836 44.224C76.748 43.488 75.836 42.672 75.1 41.776C74.396 40.848 73.9 39.888 73.612 38.896L79.084 37.216C79.5 38.4 80.316 39.44 81.532 40.336C82.748 41.232 84.252 41.696 86.044 41.728C88.124 41.728 89.772 41.296 90.988 40.432C92.204 39.568 92.812 38.432 92.812 37.024C92.812 35.744 92.3 34.704 91.276 33.904C90.252 33.072 88.876 32.432 87.148 31.984L83.02 30.928C81.452 30.512 80.028 29.904 78.748 29.104C77.5 28.304 76.508 27.296 75.772 26.08C75.068 24.864 74.716 23.424 74.716 21.76C74.716 18.624 75.74 16.192 77.788 14.464C79.836 12.704 82.764 11.824 86.572 11.824C88.716 11.824 90.588 12.16 92.188 12.832C93.82 13.472 95.164 14.368 96.22 15.52C97.276 16.64 98.06 17.92 98.572 19.36L93.196 21.088C92.716 19.808 91.884 18.752 90.7 17.92C89.516 17.088 88.044 16.672 86.284 16.672C84.46 16.672 83.02 17.104 81.964 17.968C80.94 18.832 80.428 20.032 80.428 21.568C80.428 22.816 80.828 23.792 81.628 24.496C82.46 25.168 83.58 25.68 84.988 26.032L89.116 27.04C92.124 27.776 94.46 29.04 96.124 30.832C97.788 32.624 98.62 34.608 98.62 36.784C98.62 38.704 98.156 40.4 97.228 41.872C96.3 43.344 94.924 44.496 93.1 45.328C91.308 46.16 89.116 46.576 86.524 46.576ZM103.773 46V12.4H109.149V41.536L108.861 46H103.773ZM116.733 46.576C114.717 46.576 112.973 46.064 111.501 45.04C110.061 43.984 108.957 42.512 108.189 40.624C107.421 38.736 107.037 36.528 107.037 34C107.037 31.44 107.421 29.232 108.189 27.376C108.957 25.488 110.061 24.032 111.501 23.008C112.973 21.952 114.717 21.424 116.733 21.424C118.909 21.424 120.797 21.952 122.397 23.008C124.029 24.032 125.293 25.488 126.189 27.376C127.117 29.232 127.581 31.44 127.581 34C127.581 36.528 127.117 38.736 126.189 40.624C125.293 42.512 124.029 43.984 122.397 45.04C120.797 46.064 118.909 46.576 116.733 46.576ZM115.389 41.68C116.669 41.68 117.805 41.36 118.797 40.72C119.789 40.048 120.573 39.136 121.149 37.984C121.757 36.832 122.061 35.504 122.061 34C122.061 32.496 121.773 31.168 121.197 30.016C120.653 28.864 119.885 27.968 118.893 27.328C117.901 26.688 116.749 26.368 115.437 26.368C114.221 26.368 113.133 26.688 112.173 27.328C111.213 27.968 110.461 28.864 109.917 30.016C109.405 31.168 109.149 32.496 109.149 34C109.149 35.504 109.405 36.832 109.917 37.984C110.461 39.136 111.197 40.048 112.125 40.72C113.085 41.36 114.173 41.68 115.389 41.68ZM132.179 46V22H137.219L137.459 25.216C138.195 23.968 139.139 23.024 140.291 22.384C141.443 21.744 142.755 21.424 144.227 21.424C146.147 21.424 147.779 21.856 149.123 22.72C150.467 23.584 151.443 24.896 152.051 26.656C152.755 24.96 153.747 23.664 155.027 22.768C156.307 21.872 157.811 21.424 159.539 21.424C162.323 21.424 164.467 22.32 165.971 24.112C167.475 25.872 168.211 28.592 168.179 32.272V46H162.851V33.712C162.851 31.792 162.643 30.32 162.227 29.296C161.811 28.24 161.251 27.504 160.547 27.088C159.843 26.672 159.027 26.464 158.099 26.464C156.435 26.432 155.139 27.024 154.211 28.24C153.315 29.456 152.867 31.2 152.867 33.472V46H147.491V33.712C147.491 31.792 147.283 30.32 146.867 29.296C146.483 28.24 145.939 27.504 145.235 27.088C144.531 26.672 143.715 26.464 142.787 26.464C141.123 26.432 139.827 27.024 138.899 28.24C138.003 29.456 137.555 31.2 137.555 33.472V46H132.179ZM183.216 46.576C180.688 46.576 178.752 45.952 177.408 44.704C176.096 43.424 175.44 41.6 175.44 39.232V14.512H180.768V38.224C180.768 39.344 181.024 40.192 181.536 40.768C182.08 41.344 182.864 41.632 183.888 41.632C184.208 41.632 184.56 41.568 184.944 41.44C185.328 41.312 185.76 41.072 186.24 40.72L188.208 44.8C187.376 45.376 186.544 45.808 185.712 46.096C184.88 46.416 184.048 46.576 183.216 46.576ZM171.456 26.608V22H187.248V26.608H171.456ZM192.507 46V12.4H197.883V46H192.507ZM212.587 46.576C210.987 46.576 209.515 46.336 208.171 45.856C206.827 45.376 205.675 44.704 204.715 43.84C203.755 42.944 203.019 41.904 202.507 40.72L207.163 38.656C207.643 39.552 208.347 40.304 209.275 40.912C210.235 41.52 211.291 41.824 212.443 41.824C213.691 41.824 214.683 41.616 215.419 41.2C216.187 40.752 216.571 40.144 216.571 39.376C216.571 38.64 216.283 38.08 215.707 37.696C215.131 37.28 214.315 36.944 213.259 36.688L211.003 36.064C208.731 35.488 206.955 34.576 205.675 33.328C204.395 32.048 203.755 30.592 203.755 28.96C203.755 26.56 204.523 24.704 206.059 23.392C207.627 22.08 209.867 21.424 212.779 21.424C214.251 21.424 215.595 21.648 216.811 22.096C218.059 22.512 219.131 23.12 220.027 23.92C220.923 24.688 221.547 25.6 221.899 26.656L217.435 28.672C217.115 27.872 216.507 27.264 215.611 26.848C214.715 26.4 213.723 26.176 212.635 26.176C211.547 26.176 210.699 26.416 210.091 26.896C209.483 27.344 209.179 27.984 209.179 28.816C209.179 29.296 209.451 29.744 209.995 30.16C210.539 30.544 211.323 30.864 212.347 31.12L215.179 31.792C216.747 32.176 218.027 32.784 219.019 33.616C220.011 34.416 220.747 35.328 221.227 36.352C221.707 37.344 221.947 38.352 221.947 39.376C221.947 40.816 221.531 42.08 220.699 43.168C219.899 44.256 218.795 45.104 217.387 45.712C215.979 46.288 214.379 46.576 212.587 46.576Z" fill="black"/>
</svg>
